<?xml version="1.0" encoding="utf-8"?>
<!-- Generator: Adobe Illustrator 25.4.1, SVG Export Plug-In . SVG Version: 6.00 Build 0)  -->
<svg version="1.1" id="Layer_1" xmlns="http://www.w3.org/2000/svg" xmlns:xlink="http://www.w3.org/1999/xlink" x="0px" y="0px"
	 viewBox="0 0 107.3 672.71" style="enable-background:new 0 0 107.3 672.71;" xml:space="preserve">
<style type="text/css">
	.st0{fill:none;stroke:#EFEEEE;}
</style>
<g>
	<path class="st0" d="M31.59,593.31c15.08-1.42,27.82,10.46,27.82,25.26v38.95h39.06c3.1,0,6.15-0.85,8.81-2.44h0v17.09
		c-2.66-1.6-5.71-2.45-8.81-2.45h-81c-3.1,0-6.15,0.85-8.81,2.45v-2.45h0v-50.4C8.66,606.11,18.44,594.55,31.59,593.31z
		 M34.03,605.4c-11.75,0-21.31,9.56-21.31,21.31v30.81h42.62v-30.81C55.34,614.96,45.78,605.4,34.03,605.4z"/>
	<path class="st0" d="M69.1,498.93c20,0,38.2,17.11,38.2,38.14s-18.2,38.14-38.2,38.14c-20,0-38.2-17.11-38.2-38.14
		C30.9,516.04,49.1,498.93,69.1,498.93z M69.1,511.13c-17.86,0-34.33,7.15-34.33,25.94c0,18.79,16.47,25.94,34.33,25.94
		c17.87,0,34.34-7.15,34.34-25.94C103.43,518.28,86.96,511.13,69.1,511.13z"/>
	<path class="st0" d="M31.02,423.73h4.09c0,18.79,15.25,34.07,34.04,34.07H99.4c2.52,0,5-0.6,7.24-1.75l0.66-0.34v17.09
		c-2.65-1.83-5.79-2.81-9.01-2.81H39.71c-3.1,0-6.15,0.85-8.81,2.45h0v-17.09c2.66,1.6,5.71,2.45,8.81,2.45h12.41
		C39.63,451.53,31.02,438.64,31.02,423.73z"/>
	<path class="st0" d="M103.23,360.14h4.07c0,17.1-13.91,35.08-31.01,35.08H35.08v11.36h-4.06v-11.36H10.95v-12.2h20.07V357.2h4.06
		v25.82h41.21C91.14,383.02,103.23,375,103.23,360.14z"/>
	<path class="st0" d="M107.07,317.16v17.09c-2.66-1.6-5.71-2.45-8.81-2.45H46.82c-21.03,0-38.14-21.18-38.14-42.21h4.07
		c0,18.79,15.28,30,34.07,30H66.9v-30h4.07v30h27.3C101.36,319.61,104.41,318.76,107.07,317.16z"/>
	<path class="st0" d="M69.1,191.9c20,0,38.2,17.11,38.2,38.14c0,21.03-18.2,38.14-38.2,38.14c-20,0-38.2-17.11-38.2-38.14
		C30.9,209.01,49.1,191.9,69.1,191.9z M69.1,204.1c-17.86,0-34.33,7.15-34.33,25.94c0,18.79,16.47,25.94,34.33,25.94
		c17.87,0,34.34-7.15,34.34-25.94C103.43,211.25,86.96,204.1,69.1,204.1z"/>
	<path class="st0" d="M98.83,163.39H16.92c-2.74,0-5.43,0.69-7.83,2l-0.41,0.23v-17.09c2.65,1.74,5.76,2.66,8.93,2.66h80.53
		c3.17,0,6.27-0.93,8.93-2.66v17.09l-0.41-0.23C104.26,164.08,101.57,163.39,98.83,163.39z"/>
	<path class="st0" d="M17.36,103.13c4.93,0,8.93,4,8.93,8.93c0,4.93-4,8.92-8.93,8.92s-8.93-4-8.93-8.93
		C8.43,107.12,12.42,103.13,17.36,103.13z M98.49,118.16H39.83c-3.11,0-6.15,0.85-8.81,2.45v-17.09h0c2.66,1.6,5.71,2.45,8.81,2.45
		h58.66c3.1,0,6.15-0.85,8.81-2.45h0v17.09C104.64,119,101.59,118.16,98.49,118.16z"/>
	<path class="st0" d="M69.1,0.86c20,0,38.2,17.11,38.2,38.14c0,21.03-18.2,38.14-38.2,38.14c-20,0-38.2-17.11-38.2-38.14
		C30.9,17.97,49.1,0.86,69.1,0.86z M69.1,13.06c-17.86,0-34.33,7.15-34.33,25.94c0,18.79,16.47,25.94,34.33,25.94
		c17.87,0,34.34-7.15,34.34-25.94C103.43,20.21,86.96,13.06,69.1,13.06z"/>
</g>
</svg>
